HIERARCHY
ROOT Hips
{
	OFFSET -0.001795 -0.223333 0.028219
	CHANNELS 6 Xposition Yposition Zposition Zrotation Yrotation Xrotation 
	JOINT LeftUpLeg
	{
		OFFSET 0.069520 -0.091406 -0.006815
		CHANNELS 3 Zrotation Yrotation Xrotation
		JOINT LeftLeg
		{
			OFFSET 0.034277 -0.375199 -0.004496
			CHANNELS 3 Zrotation Yrotation Xrotation
			JOINT LeftFoot
			{
				OFFSET -0.013596 -0.397961 -0.043693
				CHANNELS 3 Zrotation Yrotation Xrotation
				JOINT LeftToe
				{
					OFFSET 0.026358 -0.055791 0.119288
					CHANNELS 3 Zrotation Yrotation Xrotation
					End Site
					{
						OFFSET 0.000000 0.000000 0.000000
					}
				}
			}
		}
	}
	JOINT RightUpLeg
	{
		OFFSET -0.067670 -0.090522 -0.004320
		CHANNELS 3 Zrotation Yrotation Xrotation
		JOINT RightLeg
		{
			OFFSET -0.038290 -0.382569 -0.008850
			CHANNELS 3 Zrotation Yrotation Xrotation
			JOINT RightFoot
			{
				OFFSET 0.015774 -0.398415 -0.042312
				CHANNELS 3 Zrotation Yrotation Xrotation
				JOINT RightToe
				{
					OFFSET -0.025372 -0.048144 0.123348
					CHANNELS 3 Zrotation Yrotation Xrotation
					End Site
					{
						OFFSET 0.000000 0.000000 0.000000
					}
				}
			}
		}
	}
	JOINT Spine
	{
		OFFSET -0.002533 0.108963 -0.026696
		CHANNELS 3 Zrotation Yrotation Xrotation
		JOINT Spine1
		{
			OFFSET 0.005487 0.135180 0.001092
			CHANNELS 3 Zrotation Yrotation Xrotation
			JOINT Spine2
			{
				OFFSET 0.001457 0.052922 0.025425
				CHANNELS 3 Zrotation Yrotation Xrotation
				JOINT Neck
				{
					OFFSET -0.002778 0.213870 -0.042857
					CHANNELS 3 Zrotation Yrotation Xrotation
					JOINT Head
					{
						OFFSET 0.005152 0.064970 0.051349
						CHANNELS 3 Zrotation Yrotation Xrotation
						End Site
						{
							OFFSET 0.000000 0.000000 0.000000
						}
					}
				}
				JOINT LeftShoulder
				{
					OFFSET 0.078845 0.121749 -0.034090
					CHANNELS 3 Zrotation Yrotation Xrotation
					JOINT LeftArm
					{
						OFFSET 0.090977 0.030469 -0.008868
						CHANNELS 3 Zrotation Yrotation Xrotation
						JOINT LeftForeArm
						{
							OFFSET 0.259612 -0.012772 -0.027456
							CHANNELS 3 Zrotation Yrotation Xrotation
							JOINT LeftHand
							{
								OFFSET 0.249234 0.008986 -0.001171
								CHANNELS 3 Zrotation Yrotation Xrotation
								End Site
								{
									OFFSET 0.000000 0.000000 0.000000
								}
							}
						}
					}
				}
				JOINT RightShoulder
				{
					OFFSET -0.081759 0.118833 -0.038615
					CHANNELS 3 Zrotation Yrotation Xrotation
					JOINT RightArm
					{
						OFFSET -0.096012 0.032551 -0.009143
						CHANNELS 3 Zrotation Yrotation Xrotation
						JOINT RightForeArm
						{
							OFFSET -0.253742 -0.013329 -0.021401
							CHANNELS 3 Zrotation Yrotation Xrotation
							JOINT RightHand
							{
								OFFSET -0.255298 0.007772 -0.005559
								CHANNELS 3 Zrotation Yrotation Xrotation
								End Site
								{
									OFFSET 0.000000 0.000000 0.000000
								}
							}
						}
					}
				}
			}
		}
	}
}
MOTION
Frames: 14
Frame Time: 0.050000
-0.118652 0.957807 0.019169 0.363037 10.682352 8.126343 3.286914 -0.067684 1.824799 3.700988 0.103361 -7.254984 6.385513 16.975242 21.622783 0.000000 0.000000 0.000000 0.629948 1.339612 -14.159401 -8.458120 1.560661 5.863176 9.146125 13.708757 13.280655 0.000000 0.000000 0.000000 5.232764 -0.040646 -2.178539 6.870171 -3.443391 0.952004 -13.035962 -6.988489 2.347949 9.389386 -8.580531 4.768240 0.000000 0.000000 0.000000 -12.818010 -12.747201 4.474071 -46.134509 -16.695051 1.178142 -47.400101 -48.862126 24.310939 0.000000 0.000000 0.000000 3.823801 -10.161962 -4.194336 37.837113 -15.475494 -7.501815 123.301793 35.843031 63.874804 0.000000 0.000000 0.000000 
-0.117320 0.957750 0.017080 0.799167 11.893805 8.520406 3.087700 -0.081091 1.468417 3.118742 0.128786 -7.414066 5.980615 16.424156 20.195573 0.000000 0.000000 0.000000 -0.271930 1.243482 -14.395205 -8.212799 1.525705 5.919011 9.075023 13.876459 12.998185 0.000000 0.000000 0.000000 4.796883 -0.106611 -1.250045 7.375397 -3.560743 -0.017087 -12.896507 -7.482697 3.060032 8.962615 -7.712505 2.505001 0.000000 0.000000 0.000000 -12.152556 -14.258424 5.187433 -46.098788 -19.593910 2.227267 -48.760202 -51.782734 26.740030 0.000000 0.000000 0.000000 4.185669 -9.829149 -4.135701 38.309578 -14.688120 -7.423853 126.316783 38.331979 71.602128 0.000000 0.000000 0.000000 
-0.115459 0.957741 0.013501 1.301029 12.079568 8.763181 2.386817 -0.068367 0.851294 2.626086 0.142876 -7.426160 7.015554 17.787339 20.764392 0.000000 0.000000 0.000000 -1.295189 1.160293 -14.957079 -8.161702 1.530086 6.066653 9.927437 15.052738 13.724135 0.000000 0.000000 0.000000 4.541711 -0.225263 0.431962 7.476097 -3.471347 -0.932671 -12.287274 -7.780693 3.477444 7.744684 -6.330217 0.743737 0.000000 0.000000 0.000000 -11.020068 -16.624576 6.331904 -46.678126 -24.751427 4.260362 -45.105334 -54.978996 26.583212 0.000000 0.000000 0.000000 4.338544 -7.372236 -3.222915 40.578984 -10.881927 -6.838244 129.878491 43.517619 84.333055 0.000000 0.000000 0.000000 
-0.113262 0.957769 0.008893 1.708993 12.350152 9.283166 2.154459 -0.117256 -0.147344 1.962164 0.167474 -7.655803 7.347157 18.351042 21.901896 0.000000 0.000000 0.000000 -1.996572 1.088683 -15.239662 -8.282119 1.445913 4.966239 10.415751 15.275033 14.911280 0.000000 0.000000 0.000000 4.351957 -0.341496 1.970121 8.561849 -3.806083 -2.111098 -12.751410 -7.314559 3.474621 7.422792 -5.680286 -1.150441 0.000000 0.000000 0.000000 -9.761978 -19.752403 7.559828 -46.012037 -31.451250 6.872347 -34.079541 -56.164056 20.609648 0.000000 0.000000 0.000000 5.370283 -3.508483 -1.799638 42.375908 -2.912386 -4.639361 131.232762 54.873604 102.759737 0.000000 0.000000 0.000000 
-0.110853 0.958543 0.003268 1.994650 11.815840 9.914884 1.070054 -0.135391 -1.212159 2.323496 0.174726 -8.009270 8.856818 20.215052 23.737405 0.000000 0.000000 0.000000 -2.895977 1.018225 -15.780746 -7.819897 1.271193 3.837742 11.128996 15.685458 16.260386 0.000000 0.000000 0.000000 4.668030 -0.497380 3.475585 8.528516 -3.732799 -2.407866 -12.382273 -6.436424 2.992685 7.457330 -5.316754 -2.962087 0.000000 0.000000 0.000000 -7.381121 -24.000422 9.142298 -44.929025 -40.085512 10.166461 -16.810157 -53.606185 10.381495 0.000000 0.000000 0.000000 5.426107 1.366824 0.207676 44.187201 8.540679 -0.923796 123.746171 71.483158 112.336713 0.000000 0.000000 0.000000 
-0.108571 0.959504 -0.002840 2.368484 11.516298 10.228217 0.123332 -0.149967 -1.883641 2.631581 0.167879 -7.961060 9.299588 20.725092 24.176319 0.000000 0.000000 0.000000 -3.210553 1.025196 -16.663328 -8.157511 1.338931 4.086925 11.053418 15.040521 17.042140 0.000000 0.000000 0.000000 5.360462 -0.739355 5.348456 8.285692 -3.701653 -1.809454 -12.190699 -5.472025 1.525691 6.913072 -4.914273 -2.516036 0.000000 0.000000 0.000000 -6.171313 -29.396872 11.233489 -37.834212 -47.295510 10.660949 -2.719234 -45.981175 2.700762 0.000000 0.000000 0.000000 4.867120 8.377041 3.144516 43.346116 19.853211 3.135981 -9.938514 82.781047 -3.656497 0.000000 0.000000 0.000000 
-0.106947 0.960580 -0.008963 2.711724 11.059659 10.938164 -0.949256 -0.236648 -3.194426 3.247394 0.148046 -7.786557 10.060345 21.609197 25.345166 0.000000 0.000000 0.000000 -3.845779 1.002649 -18.093235 -7.747932 1.287898 4.200818 11.131574 14.213432 18.563904 0.000000 0.000000 0.000000 5.839185 -1.014613 7.414042 8.274958 -3.904894 -0.359798 -12.067244 -3.638140 -1.500359 5.600212 -3.782262 -2.692039 0.000000 0.000000 0.000000 -4.126350 -33.199436 12.289981 -32.118679 -53.019190 10.289553 6.179025 -37.400550 -0.874736 0.000000 0.000000 0.000000 3.659886 13.287312 5.252355 40.624958 33.024528 7.695665 -29.188779 56.775846 -12.147032 0.000000 0.000000 0.000000 
-0.106611 0.961714 -0.013891 2.785318 11.251798 11.392305 -1.433429 -0.306767 -4.013695 3.561179 0.160198 -8.173922 10.751347 22.412918 26.522820 0.000000 0.000000 0.000000 -3.928008 1.011194 -19.128332 -7.888037 1.316549 4.307359 11.417769 13.802409 20.149731 0.000000 0.000000 0.000000 7.059247 -1.382161 9.115170 7.133664 -3.401287 0.011480 -11.450591 -3.250067 -2.624778 4.647742 -3.149303 -2.136607 0.000000 0.000000 0.000000 -3.144802 -35.854136 13.235642 -25.346813 -54.924995 7.807898 11.999483 -30.281347 -2.184954 0.000000 0.000000 0.000000 3.791779 17.776567 7.199517 34.894059 39.723616 8.432962 -27.479859 39.924929 -7.448646 0.000000 0.000000 0.000000 
-0.107738 0.963234 -0.017172 2.763580 11.841178 12.257311 -1.518150 -0.402581 -4.992372 3.810133 0.176021 -8.592833 10.467976 22.203703 26.692640 0.000000 0.000000 0.000000 -3.875658 1.011170 -19.505428 -7.737261 1.218250 3.488856 10.678904 12.756359 20.042110 0.000000 0.000000 0.000000 7.198171 -1.543414 10.001904 7.864862 -3.865872 0.750937 -11.390471 -2.653576 -3.479517 4.420357 -2.969055 -2.085938 0.000000 0.000000 0.000000 -2.467163 -35.671555 12.939772 -22.019032 -55.504120 6.359495 14.287534 -27.606488 -2.540610 0.000000 0.000000 0.000000 2.973803 19.014156 7.715519 34.076613 41.135124 8.759349 -28.589072 36.877590 -7.062843 0.000000 0.000000 0.000000 
-0.110274 0.964348 -0.018828 2.846479 13.199471 13.573811 -1.200355 -0.544370 -6.379886 3.613804 0.226736 -9.725215 10.207567 22.136691 28.196878 0.000000 0.000000 0.000000 -3.877765 0.971090 -20.127957 -7.234460 1.126133 3.194092 8.848205 10.736668 18.505309 0.000000 0.000000 0.000000 7.833312 -1.793836 10.720780 8.156278 -3.971854 0.492107 -11.763653 -3.079435 -3.822844 5.182937 -3.508240 -2.017206 0.000000 0.000000 0.000000 -2.342160 -35.490861 12.857484 -20.783606 -54.594815 5.643764 18.419663 -27.524920 -3.558210 0.000000 0.000000 0.000000 4.112833 18.069560 7.540812 37.590441 39.402534 9.375497 -30.595826 42.763263 -9.064506 0.000000 0.000000 0.000000 
-0.113482 0.966116 -0.020384 3.000924 13.784743 14.312554 -0.977749 -0.631340 -7.214467 3.300096 0.234704 -9.947365 9.841995 21.852884 28.470567 0.000000 0.000000 0.000000 -4.065904 0.927910 -20.792600 -6.979432 1.101568 3.312454 8.645057 10.559322 18.358814 0.000000 0.000000 0.000000 8.144755 -2.028385 11.752509 7.940720 -3.848639 0.405277 -12.113077 -3.111449 -3.452477 6.243768 -4.464414 -1.131160 0.000000 0.000000 0.000000 -2.500695 -34.889135 12.633870 -19.844316 -52.981729 4.944962 22.824534 -28.799717 -4.908523 0.000000 0.000000 0.000000 5.657442 17.028579 7.363144 42.336752 35.173542 9.191404 -37.397658 53.336708 -15.022732 0.000000 0.000000 0.000000 
-0.116862 0.966984 -0.022874 3.221992 13.622200 14.795192 -0.973169 -0.722894 -8.044815 3.383111 0.249065 -10.286697 10.069128 22.139658 30.669009 0.000000 0.000000 0.000000 -4.211220 0.921112 -21.451075 -6.843387 1.080841 3.306249 8.693899 10.520336 18.556837 0.000000 0.000000 0.000000 7.848163 -2.170723 13.026330 7.992510 -3.694690 -0.664115 -12.372315 -2.896278 -2.164694 6.733668 -4.680246 -1.942826 0.000000 0.000000 0.000000 -2.152071 -35.111704 12.665019 -17.027580 -51.227073 3.440601 26.447970 -27.794811 -5.644104 0.000000 0.000000 0.000000 5.695346 17.244354 7.515313 45.562072 34.136236 9.603314 -40.819323 58.778752 -18.772912 0.000000 0.000000 0.000000 
-0.119992 0.967838 -0.026963 3.323972 13.049313 15.021480 -0.927058 -0.829310 -8.974451 3.338306 0.237733 -9.880379 10.670404 22.700394 32.277305 0.000000 0.000000 0.000000 -4.015920 0.989341 -22.282528 -6.506067 1.060767 3.659275 7.974469 9.103393 18.789069 0.000000 0.000000 0.000000 7.761046 -2.324285 14.225023 7.446718 -3.460190 -0.451779 -12.332043 -2.588433 -2.139086 7.119064 -4.851887 -2.463132 0.000000 0.000000 0.000000 -1.004773 -36.390373 12.982339 -14.004206 -50.692413 2.127187 26.784263 -24.053759 -4.891019 0.000000 0.000000 0.000000 5.362370 18.516358 8.060562 46.686778 36.954488 11.176235 -38.584702 55.945656 -16.489285 0.000000 0.000000 0.000000 
-0.122343 0.968337 -0.031964 3.071308 12.429652 14.776079 -0.791751 -0.841360 -9.086374 3.564190 0.228225 -9.606643 10.879424 22.837249 32.173225 0.000000 0.000000 0.000000 -3.633109 1.091179 -22.382900 -7.041289 1.115496 3.451466 9.040097 10.601757 19.177984 0.000000 0.000000 0.000000 8.105965 -2.512584 15.112833 7.145104 -3.330260 -0.322280 -12.514760 -1.893460 -2.072912 7.203141 -5.032335 -1.974525 0.000000 0.000000 0.000000 -0.792630 -38.082822 13.576871 -10.087598 -50.766789 0.526279 24.187523 -18.246506 -3.201350 0.000000 0.000000 0.000000 4.234043 21.437483 9.236005 44.591262 41.515247 12.543789 -35.953089 46.566764 -12.134246 0.000000 0.000000 0.000000 
